<svg xmlns="http://www.w3.org/2000/svg" viewBox="0 0 62.36 62.36"><defs><style>.cls-1,.cls-2{fill:#f55;}.cls-1{fill-opacity:0.15;}</style></defs><g id="图层_2" data-name="图层 2"><g id="图层_1-2" data-name="图层 1"><g id="icon"><g id="编组-16"><circle id="椭圆形备份" class="cls-1" cx="31.18" cy="31.18" r="31.18"/></g></g><path class="cls-2" d="M19.47,49a3.37,3.37,0,0,1-3.38-3.37V24.25a1.51,1.51,0,0,1,1.54-1.55h6.11a2.1,2.1,0,0,0,2.12-2.12V14.47a1.54,1.54,0,0,1,1.55-1.54H42.68a3.37,3.37,0,0,1,3.37,3.38V45.63A3.37,3.37,0,0,1,42.68,49Zm4-11a1.21,1.21,0,1,0,0,2.41H38.71a1.21,1.21,0,0,0,0-2.41Zm0-6.11a1.21,1.21,0,1,0,0,2.41H38.71a1.21,1.21,0,0,0,0-2.41Zm5.49-6.11a1.21,1.21,0,0,0,0,2.41h9.78a1.21,1.21,0,0,0,0-2.41ZM17.14,20.35c-.23,0-.34-.06-.36-.1s0-.16.15-.33L23,13.64c.19-.19.29-.19.29-.19a.58.58,0,0,1,.07.35v5a1.5,1.5,0,0,1-1.54,1.54Z"/></g></g></svg>